<?xml version="1.0" encoding="utf-8"?>
<!-- Generator: Adobe Illustrator 16.0.0, SVG Export Plug-In . SVG Version: 6.00 Build 0)  -->
<!DOCTYPE svg PUBLIC "-//W3C//DTD SVG 1.1//EN" "http://www.w3.org/Graphics/SVG/1.1/DTD/svg11.dtd">
<svg version="1.1" id="Capa_1" xmlns="http://www.w3.org/2000/svg" xmlns:xlink="http://www.w3.org/1999/xlink" x="0px" y="0px"
	 width="566.93px" height="566.93px" viewBox="0 0 566.93 566.93" enable-background="new 0 0 566.93 566.93" xml:space="preserve">
<g id="XMLID_18_">
	<g>
		<path fill="#FFFFFF" d="M482.278,477.667c-0.248,0.248-0.481,0.495-0.736,0.75C373.877,586.082,199.316,586.082,91.644,478.41
			c-107.666-107.666-107.666-282.228,0-389.893c0.227-0.227,0.454-0.44,0.674-0.66l389.597,389.597l0.103-0.104
			C482.1,477.461,482.189,477.564,482.278,477.667z"/>
	</g>
	<g>
		<path fill="none" stroke="#010002" stroke-width="10" stroke-miterlimit="10" d="M482.017,477.351l-0.103,0.104L92.317,87.857
			c-0.22,0.22-0.447,0.434-0.674,0.66c-107.666,107.665-107.666,282.227,0,389.893c107.672,107.672,282.234,107.672,389.899,0.007
			c0.255-0.255,0.488-0.502,0.736-0.75C482.189,477.564,482.1,477.461,482.017,477.351z"/>
	</g>
</g>
<g id="XMLID_17_">
	<g>
		<path fill="#3A9742" d="M90.91,89.263c0.248-0.248,0.481-0.495,0.736-0.75C199.312-19.152,373.873-19.152,481.545,88.52
			c107.666,107.666,107.666,282.228,0,389.893c-0.227,0.227-0.454,0.44-0.674,0.66L91.275,89.476l-0.103,0.104
			C91.089,89.469,91,89.365,90.91,89.263z"/>
	</g>
	<g>
		<path fill="none" stroke="#010002" stroke-width="10" stroke-miterlimit="10" d="M91.172,89.579l0.103-0.104l389.597,389.597
			c0.22-0.22,0.447-0.434,0.674-0.66c107.666-107.665,107.666-282.227,0-389.893C373.873-19.152,199.312-19.152,91.646,88.513
			c-0.254,0.255-0.488,0.502-0.736,0.75C91,89.365,91.089,89.469,91.172,89.579z"/>
	</g>
</g>
</svg>
