<?xml version="1.0" encoding="utf-8"?>
<!-- Generator: Adobe Illustrator 16.0.0, SVG Export Plug-In . SVG Version: 6.00 Build 0)  -->
<!DOCTYPE svg PUBLIC "-//W3C//DTD SVG 1.1//EN" "http://www.w3.org/Graphics/SVG/1.1/DTD/svg11.dtd">
<svg version="1.1" id="Capa_1" xmlns="http://www.w3.org/2000/svg" xmlns:xlink="http://www.w3.org/1999/xlink" x="0px" y="0px"
	 width="566.93px" height="566.93px" viewBox="0 0 566.93 566.93" enable-background="new 0 0 566.93 566.93" xml:space="preserve">
<g id="XMLID_20_">
	<g>
		<path fill="#FFFFFF" d="M479.149,477.667c-0.248,0.248-0.481,0.495-0.736,0.75C370.748,586.082,196.187,586.082,88.514,478.41
			c-107.666-107.666-107.666-282.228,0-389.893c0.227-0.227,0.454-0.44,0.674-0.66l389.597,389.597l0.103-0.104
			C478.97,477.461,479.06,477.563,479.149,477.667z"/>
	</g>
	<g>
		<path fill="none" stroke="#010002" stroke-width="10" stroke-miterlimit="10" d="M478.888,477.351l-0.103,0.104L89.188,87.857
			c-0.22,0.22-0.447,0.434-0.674,0.66c-107.666,107.665-107.666,282.227,0,389.893c107.672,107.672,282.234,107.672,389.899,0.007
			c0.255-0.255,0.488-0.502,0.736-0.75C479.06,477.563,478.97,477.461,478.888,477.351z"/>
	</g>
</g>
<g id="XMLID_19_">
	<g>
		<path fill="#723086" d="M87.781,89.263c0.248-0.248,0.481-0.495,0.736-0.75C196.182-19.152,370.744-19.152,478.416,88.52
			c107.666,107.666,107.666,282.228,0,389.893c-0.227,0.227-0.454,0.44-0.667,0.653L88.146,89.476l-0.103,0.104
			C87.96,89.469,87.871,89.365,87.781,89.263z"/>
	</g>
	<g>
		<path fill="none" stroke="#010002" stroke-width="10" stroke-miterlimit="10" d="M88.042,89.579l0.103-0.104l389.604,389.59
			c0.213-0.213,0.44-0.427,0.667-0.653c107.666-107.665,107.666-282.227,0-389.893C370.744-19.152,196.182-19.152,88.517,88.513
			c-0.255,0.255-0.489,0.502-0.736,0.75C87.871,89.365,87.96,89.469,88.042,89.579z"/>
	</g>
</g>
</svg>
