<?xml version="1.0" encoding="utf-8"?>
<!-- Generator: Adobe Illustrator 16.0.0, SVG Export Plug-In . SVG Version: 6.00 Build 0)  -->
<!DOCTYPE svg PUBLIC "-//W3C//DTD SVG 1.1//EN" "http://www.w3.org/Graphics/SVG/1.1/DTD/svg11.dtd">
<svg version="1.1" id="Capa_1" xmlns="http://www.w3.org/2000/svg" xmlns:xlink="http://www.w3.org/1999/xlink" x="0px" y="0px"
	 width="566.93px" height="566.93px" viewBox="0 0 566.93 566.93" enable-background="new 0 0 566.93 566.93" xml:space="preserve">
<g id="XMLID_10_">
	<g>
		<path d="M476.02,485.432c-0.248,0.247-0.481,0.495-0.736,0.749c-107.665,107.666-282.227,107.666-389.899-0.007
			c-107.666-107.665-107.666-282.227,0-389.892c0.227-0.227,0.454-0.44,0.674-0.66l389.597,389.597l0.103-0.104
			C475.841,485.226,475.93,485.329,476.02,485.432z"/>
	</g>
	<g>
		<path fill="none" stroke="#FFFFFF" stroke-width="10" stroke-miterlimit="10" d="M475.758,485.116l-0.103,0.104L86.059,95.622
			c-0.22,0.22-0.447,0.434-0.674,0.66c-107.666,107.666-107.666,282.227,0,389.892c107.672,107.673,282.234,107.673,389.899,0.007
			c0.255-0.254,0.488-0.502,0.736-0.749C475.93,485.329,475.841,485.226,475.758,485.116z"/>
	</g>
</g>
<g id="XMLID_9_">
	<g>
		<path fill="#723086" d="M84.651,97.027c0.248-0.248,0.481-0.495,0.736-0.75C193.053-11.388,367.614-11.388,475.287,96.285
			c107.666,107.665,107.666,282.227,0,389.893c-0.227,0.227-0.454,0.439-0.667,0.653L85.016,97.241l-0.103,0.103
			C84.831,97.234,84.741,97.13,84.651,97.027z"/>
	</g>
	<g>
		<path fill="none" stroke="#FFFFFF" stroke-width="10" stroke-miterlimit="10" d="M84.913,97.344l0.103-0.103l389.604,389.59
			c0.213-0.214,0.44-0.427,0.667-0.653c107.666-107.666,107.666-282.228,0-389.893C367.614-11.388,193.053-11.388,85.387,96.278
			c-0.254,0.254-0.488,0.502-0.736,0.75C84.741,97.13,84.831,97.234,84.913,97.344z"/>
	</g>
</g>
</svg>
