<?xml version="1.0" encoding="utf-8"?>
<!-- Generator: Adobe Illustrator 16.0.0, SVG Export Plug-In . SVG Version: 6.00 Build 0)  -->
<!DOCTYPE svg PUBLIC "-//W3C//DTD SVG 1.1//EN" "http://www.w3.org/Graphics/SVG/1.1/DTD/svg11.dtd">
<svg version="1.1" id="Capa_1" xmlns="http://www.w3.org/2000/svg" xmlns:xlink="http://www.w3.org/1999/xlink" x="0px" y="0px"
	 width="566.93px" height="566.93px" viewBox="0 0 566.93 566.93" enable-background="new 0 0 566.93 566.93" xml:space="preserve">
<g id="XMLID_6_">
	<g>
		<path d="M479.148,477.667c-0.247,0.248-0.481,0.495-0.736,0.75C370.747,586.082,196.186,586.082,88.514,478.41
			c-107.666-107.665-107.666-282.227,0-389.892c0.227-0.227,0.453-0.44,0.674-0.66l389.597,389.597l0.103-0.104
			C478.97,477.461,479.059,477.564,479.148,477.667z"/>
	</g>
	<g>
		<path fill="none" stroke="#FFFFFF" stroke-width="10" stroke-miterlimit="10" d="M478.887,477.351l-0.103,0.104L89.188,87.857
			c-0.221,0.22-0.447,0.433-0.674,0.66c-107.666,107.666-107.666,282.227,0,389.892c107.672,107.672,282.233,107.672,389.898,0.007
			c0.255-0.254,0.489-0.502,0.736-0.75C479.059,477.564,478.97,477.461,478.887,477.351z"/>
	</g>
</g>
<g id="XMLID_5_">
	<g>
		<path fill="#C75034" d="M87.78,89.262c0.248-0.248,0.481-0.495,0.736-0.75C196.182-19.152,370.743-19.152,478.415,88.52
			c107.666,107.666,107.666,282.227,0,389.893c-0.227,0.227-0.453,0.44-0.674,0.66L88.145,89.476l-0.103,0.103
			C87.959,89.469,87.87,89.366,87.78,89.262z"/>
	</g>
	<g>
		<path fill="none" stroke="#FFFFFF" stroke-width="10" stroke-miterlimit="10" d="M88.042,89.579l0.103-0.103l389.597,389.597
			c0.221-0.22,0.447-0.433,0.674-0.66c107.666-107.666,107.666-282.227,0-389.893C370.743-19.152,196.182-19.152,88.517,88.513
			c-0.255,0.254-0.488,0.502-0.736,0.75C87.87,89.366,87.959,89.469,88.042,89.579z"/>
	</g>
</g>
</svg>
