<?xml version="1.0" encoding="utf-8"?>
<!-- Generator: Adobe Illustrator 16.0.0, SVG Export Plug-In . SVG Version: 6.00 Build 0)  -->
<!DOCTYPE svg PUBLIC "-//W3C//DTD SVG 1.1//EN" "http://www.w3.org/Graphics/SVG/1.1/DTD/svg11.dtd">
<svg version="1.1" id="Capa_1" xmlns="http://www.w3.org/2000/svg" xmlns:xlink="http://www.w3.org/1999/xlink" x="0px" y="0px"
	 width="566.93px" height="566.93px" viewBox="0 0 566.93 566.93" enable-background="new 0 0 566.93 566.93" xml:space="preserve">
<g id="XMLID_8_">
	<g>
		<path d="M479.148,477.667c-0.247,0.248-0.481,0.495-0.735,0.75c-107.665,107.665-282.228,107.665-389.899-0.007
			c-107.665-107.666-107.665-282.227,0-389.893c0.227-0.227,0.454-0.44,0.674-0.66l389.597,389.597l0.104-0.104
			C478.97,477.461,479.06,477.564,479.148,477.667z"/>
	</g>
	<g>
		<path fill="none" stroke="#FFFFFF" stroke-width="10" stroke-miterlimit="10" d="M478.888,477.351l-0.104,0.104L89.188,87.858
			c-0.22,0.22-0.447,0.433-0.674,0.66c-107.665,107.666-107.665,282.227,0,389.893c107.672,107.672,282.234,107.672,389.899,0.007
			c0.254-0.255,0.488-0.502,0.735-0.75C479.06,477.564,478.97,477.461,478.888,477.351z"/>
	</g>
</g>
<g id="XMLID_7_">
	<g>
		<path fill="#3A9742" d="M87.78,89.263c0.248-0.248,0.481-0.496,0.736-0.75C196.182-19.152,370.743-19.152,478.416,88.52
			c107.665,107.666,107.665,282.227,0,389.893c-0.228,0.227-0.454,0.44-0.674,0.66L88.146,89.476l-0.104,0.104
			C87.959,89.469,87.87,89.366,87.78,89.263z"/>
	</g>
	<g>
		<path fill="none" stroke="#FFFFFF" stroke-width="10" stroke-miterlimit="10" d="M88.042,89.58l0.104-0.104l389.597,389.597
			c0.22-0.22,0.446-0.433,0.674-0.66c107.665-107.666,107.665-282.227,0-389.893C370.743-19.152,196.182-19.152,88.517,88.513
			c-0.255,0.254-0.488,0.502-0.736,0.75C87.87,89.366,87.959,89.469,88.042,89.58z"/>
	</g>
</g>
</svg>
