<?xml version="1.0" encoding="utf-8"?>
<!-- Generator: Adobe Illustrator 16.0.0, SVG Export Plug-In . SVG Version: 6.00 Build 0)  -->
<!DOCTYPE svg PUBLIC "-//W3C//DTD SVG 1.1//EN" "http://www.w3.org/Graphics/SVG/1.1/DTD/svg11.dtd">
<svg version="1.1" id="Capa_1" xmlns="http://www.w3.org/2000/svg" xmlns:xlink="http://www.w3.org/1999/xlink" x="0px" y="0px"
	 width="566.93px" height="566.93px" viewBox="0 0 566.93 566.93" enable-background="new 0 0 566.93 566.93" xml:space="preserve">
<g id="XMLID_1_">
	<g>
		<path d="M476.02,477.667c-0.248,0.248-0.481,0.496-0.736,0.75C367.619,586.082,193.057,586.082,85.385,478.41
			c-107.666-107.666-107.666-282.227,0-389.893c0.227-0.227,0.454-0.44,0.674-0.66l389.597,389.597l0.103-0.104
			C475.841,477.46,475.93,477.563,476.02,477.667z"/>
	</g>
	<g>
		<path fill="none" stroke="#FFFFFF" stroke-width="10" stroke-miterlimit="10" d="M475.758,477.35l-0.103,0.104L86.059,87.857
			c-0.22,0.22-0.447,0.433-0.674,0.66c-107.666,107.666-107.666,282.227,0,389.893c107.672,107.672,282.234,107.672,389.899,0.007
			c0.254-0.254,0.488-0.502,0.736-0.75C475.93,477.563,475.841,477.46,475.758,477.35z"/>
	</g>
</g>
<g id="XMLID_2_">
	<g>
		<path fill="#C12D2F" d="M84.651,89.262c0.248-0.248,0.481-0.496,0.736-0.75C193.053-19.153,367.614-19.153,475.287,88.519
			c107.666,107.666,107.666,282.227,0,389.893c-0.227,0.227-0.454,0.44-0.674,0.66L85.016,89.475l-0.104,0.103
			C84.83,89.468,84.741,89.365,84.651,89.262z"/>
	</g>
	<g>
		<path fill="none" stroke="#FFFFFF" stroke-width="10" stroke-miterlimit="10" d="M84.913,89.578l0.104-0.103l389.597,389.597
			c0.22-0.22,0.447-0.433,0.674-0.66c107.666-107.666,107.666-282.227,0-389.893C367.614-19.153,193.053-19.153,85.387,88.512
			c-0.254,0.254-0.488,0.502-0.736,0.75C84.741,89.365,84.83,89.468,84.913,89.578z"/>
	</g>
</g>
</svg>
